<svg width="0" height="0" class="hidden">
  <symbol xmlns="http://www.w3.org/2000/svg" xmlns:xlink="http://www.w3.org/1999/xlink" version="1.1" xml:space="preserve" viewBox="0 0 400 400" id="loon-icon">
    <desc>Created with Fabric.js 3.6.2</desc>
    <defs></defs>
    <g transform="matrix(7.14 0 0 7.14 200 200)" clip-path="url(#CLIPPATH_2)">
      <clipPath id="CLIPPATH_2">
        <path transform="matrix(1 0 0 1 0 0) translate(-24, -24)" id="b" d="M 0 0 h 48 v 48 H 0 z" stroke-linecap="round"></path>
      </clipPath>
      <path transform=" translate(-24, -24)" d="M 18 42 c 0 1.1 0.9 2 2 2 h 8 c 1.1 0 2 -0.9 2 -2 v -2 H 18 v 2 z m 6 -38 c -7.73 0 -14 6.27 -14 14 c 0 4.76 2.38 8.95 6 11.48 V 34 c 0 1.1 0.9 2 2 2 h 12 c 1.1 0 2 -0.9 2 -2 v -4.52 c 3.62 -2.53 6 -6.72 6 -11.48 c 0 -7.73 -6.27 -14 -14 -14 z m 5.71 22.2 L 28 27.39 V 32 h -8 v -4.6 l -1.71 -1.19 C 15.6 24.33 14 21.27 14 18.01 c 0 -5.51 4.49 -10 10 -10 s 10 4.49 10 10 c 0 3.25 -1.6 6.31 -4.29 8.19 z" stroke-linecap="round"></path>
    </g>
  </symbol>
</svg>